<svg width="15" height="15" viewBox="0 0 15 15" fill="none" xmlns="http://www.w3.org/2000/svg">
<path d="M4.875 12.1364C4.54545 12.1364 4.26278 12.0213 4.02699 11.7912C3.79403 11.5582 3.67898 11.2756 3.68182 10.9432C3.67898 10.6193 3.79403 10.3423 4.02699 10.1122C4.26278 9.8821 4.54545 9.76705 4.875 9.76705C5.1875 9.76705 5.46307 9.8821 5.7017 10.1122C5.94318 10.3423 6.06534 10.6193 6.06818 10.9432C6.06534 11.1648 6.0071 11.3665 5.89347 11.5483C5.78267 11.7273 5.63778 11.8707 5.45881 11.9787C5.27983 12.0838 5.08523 12.1364 4.875 12.1364ZM11.625 2.86364L8.8125 13.3125H6.81818L9.63068 2.86364H11.625Z" fill="#00F0FF"/>
</svg>
